<svg height="29" viewBox="0 0 40 29" width="40" xmlns="http://www.w3.org/2000/svg"><path d="m777.141 205.009h-24.28a3.091 3.091 0 0 1 -3.131-3.044v-14.341a1.129 1.129 0 0 1 1.144-1.111h28.255a1.128 1.128 0 0 1 1.143 1.111v14.341a3.091 3.091 0 0 1 -3.131 3.044zm-26.267-17.56a.18.18 0 0 0 -.181.175v14.341a2.142 2.142 0 0 0 2.168 2.108h24.28a2.142 2.142 0 0 0 2.168-2.108v-14.341a.18.18 0 0 0 -.18-.175zm28.409 4.687a3.315 3.315 0 0 1 1.038-2.219 6.509 6.509 0 0 1 4.679-1.472v.937a5.6 5.6 0 0 0 -4 1.2 2.414 2.414 0 0 0 -.758 1.553zm-29.532 0c0-.113-.115-2.758-4.757-2.758v-.937c5.634 0 5.72 3.649 5.72 3.686zm.867-6.681a1.073 1.073 0 0 1 -1.078-.96c-.015-.426.271-3.966 14.14-5.3l.141-.013.126.062a1.187 1.187 0 0 0 .29.1 1.534 1.534 0 0 0 .386.032 1.281 1.281 0 0 0 .319-.075 1.355 1.355 0 0 0 .325-.169l.112-.081.141-.011c13.987-1.054 14.819 2.421 14.868 2.821a1.031 1.031 0 0 1 -.247.781 1.086 1.086 0 0 1 -.735.372l-28.694 2.44c-.032.004-.063.005-.094.005zm13.029-5.316c-12.783 1.25-13.144 4.291-13.146 4.322a.155.155 0 0 0 .127.057l28.694-2.44.588-.165-.478.054c0-.007-.833-2.957-13.709-2.007a2.431 2.431 0 0 1 -1.015.346 2.287 2.287 0 0 1 -.648-.045 2.531 2.531 0 0 1 -.413-.118zm.864.175a2.209 2.209 0 0 1 -2.221-1.98 2.11 2.11 0 0 1 .513-1.582 2.238 2.238 0 0 1 1.514-.766 2.208 2.208 0 0 1 2.417 1.971 2.191 2.191 0 0 1 -2.027 2.348c-.066.01-.131.013-.196.013zm0-3.4c-.037 0-.073 0-.111 0a1.242 1.242 0 0 0 -1.151 1.334 1.214 1.214 0 0 0 .447.837 1.33 1.33 0 0 0 .926.283 1.244 1.244 0 0 0 1.151-1.334 1.257 1.257 0 0 0 -1.261-1.116z" fill="#e4002b" fill-rule="evenodd" transform="translate(-745 -176)"/></svg>