<svg height="31" viewBox="0 0 32.719 31" width="32.719" xmlns="http://www.w3.org/2000/svg"><path d="m458.391 326a1.1 1.1 0 0 1 .9.742l3.249 6.529a4.32 4.32 0 0 0 2.9 2.088l7.266 1.047c1.1.159 1.351.919.554 1.69l-5.26 5.085a4.266 4.266 0 0 0 -1.107 3.379l1.241 7.176c.136.789-.169 1.252-.722 1.252a1.6 1.6 0 0 1 -.727-.208l-6.5-3.388a4.361 4.361 0 0 0 -3.583 0l-6.5 3.388a1.6 1.6 0 0 1 -.727.208c-.554 0-.859-.463-.722-1.252l1.241-7.176a4.263 4.263 0 0 0 -1.108-3.379l-5.257-5.082c-.8-.771-.548-1.531.553-1.69l7.266-1.047a4.32 4.32 0 0 0 2.9-2.088l3.25-6.529a1.1 1.1 0 0 1 .9-.742m0-1a2.07 2.07 0 0 0 -1.8 1.3l-3.249 6.529a3.335 3.335 0 0 1 -2.137 1.539l-7.266 1.047a2.069 2.069 0 0 0 -1.806 1.3 2.042 2.042 0 0 0 .691 2.1l5.258 5.082a3.292 3.292 0 0 1 .816 2.491l-1.241 7.176a2.137 2.137 0 0 0 .394 1.834 1.7 1.7 0 0 0 1.326.592 2.6 2.6 0 0 0 1.2-.324l6.5-3.388a3.364 3.364 0 0 1 2.641 0l6.5 3.388a2.6 2.6 0 0 0 1.2.324 1.7 1.7 0 0 0 1.325-.592 2.137 2.137 0 0 0 .394-1.834l-1.241-7.176a3.292 3.292 0 0 1 .816-2.491l5.258-5.082a2.042 2.042 0 0 0 .691-2.1 2.069 2.069 0 0 0 -1.805-1.3l-7.266-1.047a3.335 3.335 0 0 1 -2.137-1.539l-3.26-6.532a2.07 2.07 0 0 0 -1.8-1.3z" fill="#e4002b" fill-rule="evenodd" transform="translate(-442.031 -325)"/></svg>