<svg height="34" viewBox="0 0 15 34" width="15" xmlns="http://www.w3.org/2000/svg"><path d="m460.947 182.276a37.091 37.091 0 0 1 -1.783-6.9 1.676 1.676 0 0 0 -.164-.437v-3.166a.775.775 0 0 0 -.774-.775h-3.452a.775.775 0 0 0 -.774.775v3.166a1.641 1.641 0 0 0 -.164.437 37.091 37.091 0 0 1 -1.783 6.9c-.914 1.824-3.053 6.106-3.053 10.224a83.767 83.767 0 0 0 .851 11.056 1.694 1.694 0 0 0 1.669 1.444h9.96a1.694 1.694 0 0 0 1.669-1.444 83.767 83.767 0 0 0 .851-11.056c0-4.118-2.139-8.4-3.053-10.224zm1.212 21.138a.688.688 0 0 1 -.679.586h-9.96a.688.688 0 0 1 -.679-.586 82.706 82.706 0 0 1 -.841-10.914c0-3.882 2.065-8.013 2.947-9.776a33.994 33.994 0 0 0 1.791-6.731c.013 0 .024.007.036.007h3.452c.012 0 .023-.007.036-.007a34.012 34.012 0 0 0 1.791 6.731c.882 1.763 2.947 5.894 2.947 9.776a82.706 82.706 0 0 1 -.841 10.914z" fill="#e4002b" fill-rule="evenodd" transform="translate(-449 -171)"/></svg>