<svg height="31" width="39" xmlns="http://www.w3.org/2000/svg"><path d="m37.109 14.159c-.102 0-.199-.015-.296-.031l-3.421 10.42-.762-.257 3.434-10.46c-.007-.004-.013-.011-.02-.016-.053-.038-.105-.079-.154-.122-1.935 1.339-3.604 1.713-4.843 1.08-1.425-.727-2.202-2.744-2.311-5.998-.713.477-1.883.993-3.331.661-1.974-.455-3.804-2.352-5.441-5.641-1.669 3.348-3.56 5.255-5.624 5.665-1.457.289-2.64-.24-3.34-.696-.101 3.317-.839 5.289-2.247 6.019-1.196.618-2.782.253-4.716-1.09-.049.044-.1.083-.153.121-.007.005-.013.012-.02.017l3.434 10.46-.762.257-3.421-10.42c-.097.016-.195.031-.296.031-1.027 0-1.862-.849-1.862-1.891s.835-1.89 1.862-1.89 1.862.848 1.862 1.89c0 .273-.06.53-.162.765 1.655 1.144 2.959 1.496 3.869 1.022 1.122-.58 1.739-2.505 1.808-5.551-1.022-.006-1.852-.851-1.852-1.889 0-1.042.835-1.891 1.862-1.891 1.026 0 1.862.849 1.862 1.891 0 .576-.261 1.087-.664 1.434.564.372 1.563.849 2.782.61 1.777-.353 3.449-2.072 4.977-5.083-.611-.311-1.035-.946-1.035-1.685 0-1.042.835-1.89 1.862-1.89 1.026 0 1.862.848 1.862 1.89 0 .756-.451 1.388-1.086 1.689 1.5 2.958 3.118 4.669 4.817 5.061 1.099.252 2.003-.107 2.595-.476-.284-.332-.462-.76-.462-1.233 0-1.041.835-1.89 1.862-1.89s1.862.849 1.862 1.89c0 1.043-.835 1.891-1.862 1.891-.01 0-.019-.003-.029-.003.107 2.844.742 4.655 1.859 5.224 1.231.63 2.932-.275 4.002-1.009-.103-.235-.163-.493-.163-.767 0-1.042.835-1.89 1.862-1.89 1.026 0 1.862.848 1.862 1.89s-.836 1.891-1.862 1.891zm-34.29-2.965c-.584 0-1.059.482-1.059 1.074 0 .593.475 1.075 1.059 1.075.144 0 .281-.03.407-.083.009-.004.017-.012.026-.016.097-.044.182-.108.261-.179.034-.031.066-.064.096-.1.161-.189.268-.428.268-.697 0-.592-.474-1.074-1.058-1.074zm7.387-5.654c-.584 0-1.059.482-1.059 1.075 0 .592.475 1.074 1.059 1.074s1.058-.482 1.058-1.074c0-.593-.474-1.075-1.058-1.075zm10.842-3.649c0-.592-.475-1.074-1.058-1.074-.584 0-1.059.482-1.059 1.074 0 .558.426 1.002.962 1.054.065.006.129.006.193 0 .537-.052.962-.496.962-1.054zm8.53 6.116c.584 0 1.059-.482 1.059-1.075 0-.592-.475-1.074-1.059-1.074s-1.059.482-1.059 1.074c0 .418.243.771.587.949.037.019.075.038.115.053.113.041.231.073.357.073zm7.531 3.187c-.584 0-1.059.482-1.059 1.074 0 .269.107.508.268.696.031.036.063.07.097.101.078.071.163.134.26.179.009.004.017.012.027.016.125.053.262.083.407.083.583 0 1.058-.482 1.058-1.075 0-.592-.475-1.074-1.058-1.074zm-17.569 4.528h-2.923v-1.09c.381 0 .752-.029 1.112-.089.36-.058.686-.168.977-.328s.537-.379.739-.657c.201-.278.339-.631.413-1.058h1.032v11.364h-1.35zm-6.863 10.424c2.133.207 4.55.441 7.189.441s5.057-.234 7.19-.441c3.336-.322 5.541-.537 6.486.336.306.282.461.659.461 1.12 0 2.515-6.772 3.111-13.397 3.362l-.473.018c-.25.01-.573.016-.952.016-3.326 0-11.03-.442-12.949-2.314-.333-.326-.502-.689-.502-1.082 0-.461.155-.838.461-1.12.946-.874 3.149-.659 6.486-.336zm-5.888 1.95c1.775 1.732 10.352 2.194 13.313 2.07l.475-.018c10.432-.395 12.622-1.603 12.622-2.546 0-.299-.113-.438-.197-.516-.684-.63-3.086-.397-5.87-.128-2.15.208-4.588.445-7.265.445h-.001c-2.677 0-5.115-.237-7.265-.445-1.471-.142-2.836-.275-3.897-.275-.946 0-1.65.106-1.973.403-.084.078-.197.217-.197.516 0 .164.083.325.255.494z" fill="#e4002b" fill-rule="evenodd"/></svg>