<svg height="29" width="37" xmlns="http://www.w3.org/2000/svg"><path d="m36.718 15.179c.34.375.381.986.123 1.868-.815 2.836-4.478 11.953-17.867 11.953-13.246 0-16.849-8.261-17.784-11.814l-.038-.14c-.256-.881-.216-1.492.124-1.867.355-.393.851-.313.907-.301l1.116-.001c-.282-.518-.388-1.21.098-1.991.493-.788.415-.949.261-1.267-.072-.149-.149-.31-.206-.513-.166-.58.042-1.28.505-1.697.449-.407 1.073-.495 1.713-.238-.008-.01.018-.015.019-.015.059-.07.154-.476.256-1.19.076-.532.37-.783.603-.901.609-.306 1.466-.031 1.978.189l3.695-5.605c.029-.043.58-.858 1.545-1.005.652-.1 1.315.122 1.969.658.584.478.905 1.012.953 1.585.062.735-.354 1.236-.401 1.292-.178.256-1.173 1.678-2.116 3.004.234.292.824 1.123.742 1.946-.009.08.011.099.021.11.076.078.262.107.424.118.091-.486.37-1.707.958-2.086.195-.126.411-.162.626-.105.274.072.498.201.695.315.377.217.377.218.519.028.66-.879 1.679-1.651 2.562-1.183.074.039.134.09.194.142-.018-.186-.057-.367-.057-.555 0-3.261 2.649-5.913 5.905-5.913 3.257 0 5.906 2.652 5.906 5.913 0 .301-.046.59-.089.879 2.199.628 3.763 2.643 3.763 4.967 0 1.13-.377 2.219-1.049 3.111h.573c.145-.017.551-.026.854.309zm-21.122-11.542c.035-.043.253-.312.217-.687-.032-.324-.245-.65-.634-.968-.451-.368-.881-.527-1.273-.47-.578.084-.942.607-.954.624l-3.742 5.66c-.003.034-.364 1.023.535 1.594.687.434 1.35.3 2.025-.413.256-.269 2.483-3.418 3.826-5.34zm.476 7.034c-.119-.216-.429-.366-.579-.422-.246.024-.832-.029-1.189-.398-.143-.147-.305-.408-.265-.809.036-.354-.204-.8-.407-1.104-.592.825-1.088 1.499-1.226 1.644-.589.623-1.234.939-1.885.939-.416 0-.836-.128-1.246-.39-.859-.544-1.043-1.364-.994-2.018-.453-.207-1.07-.398-1.338-.262-.031.016-.102.051-.129.239-.147 1.028-.273 1.53-.636 1.791-.297.213-.638.15-.75.131-.415-.159-.683-.132-.884.048-.237.216-.313.58-.248.805.041.147.099.263.151.369.269.554.392 1-.305 2.118-.49.786.036 1.337.265 1.525l11.69-.003c.427-.326.671-.652.691-.949.015-.224-.096-.45-.332-.673-.786-.743-.706-1.141-.466-1.901l.106-.345c.05-.17.01-.272-.024-.335zm5.642-2.117-.231.028-.023-.051c-.469-.114-.693-.612-.829-.914-.094-.211-.202-.45-.324-.514-.301-.16-.937.252-1.448.934-.609.813-1.294.417-1.66.205-.164-.094-.319-.185-.48-.226-.105.095-.39.867-.513 1.584l-.053-.009c.242.137.518.347.688.657.167.303.201.651.098 1.003l-.112.366c-.19.599-.19.599.232.997.429.406.639.88.605 1.371-.021.306-.135.603-.335.889l8.881-.002c.218-.25.367-.454.451-.606-.181-.325-.326-.664-.434-1.021-.359-.358-.538-.799-.393-1.479l-.017-.001.187-.566c.004-.01.004-.017.008-.027.001-.001.001-.001.001-.002l.021-.273.024.001.02-.132c0-.003-.001-.006-.002-.009-.016-.09-.051-.148-.07-.176-.15-.223-.508-.362-.754-.362l-.103.001c-.362-.002-.768.006-1.082-.305-.24-.239-.352-.595-.352-1.12 0-.184-.066-.257-.13-.304-.266-.194-.937-.194-1.564.005-.076.024-.147.037-.215.046l-.076.01c-.005 0-.011.001-.016.002zm5.046-7.675c-2.773 0-5.027 2.257-5.027 5.034 0 .573.096 1.133.286 1.671.051-.012.107-.016.159-.027.095-.019.186-.034.285-.047.092-.012.182-.017.274-.023.107-.006.21-.012.317-.008.108.004.209.022.313.038.084.013.169.02.248.042.18.05.347.12.489.224.32.235.489.585.489 1.012 0 .384.077.481.092.496.055.054.282.052.457.05h.11c.146 0 .311.031.479.077.011.003.02.007.031.01.168.05.333.126.491.225l.431-2.747.275 3.842c.001.015-.008.033-.008.048.001.007-.002.016-.003.024.001.038.014.067.012.107.253-.01.502-.042.747-.089.02-.004.042-.005.063-.009.233-.049.459-.12.681-.201.047-.017.096-.031.144-.049.211-.084.414-.185.611-.296.052-.029.103-.058.154-.089.186-.113.364-.237.533-.372.058-.047.113-.097.169-.146.153-.133.301-.273.438-.425.066-.074.125-.155.187-.234.114-.143.229-.285.327-.44.084-.134.151-.279.222-.421.09-.178.172-.359.241-.549.08-.223.158-.447.206-.683l.009-.037c.062-.315.096-.641.096-.974 0-2.777-2.256-5.034-5.028-5.034zm8.702 10.88c0-1.908-1.263-3.58-3.055-4.122-.034.111-.087.212-.127.32-.051.137-.1.272-.161.405-.089.194-.194.377-.303.559-.072.121-.136.247-.217.363-.182.26-.383.505-.603.732-.127.131-.271.243-.409.362-.12.102-.236.207-.363.3-.15.109-.307.205-.467.3-.141.084-.284.162-.431.235-.156.076-.311.148-.474.21-.198.076-.401.134-.607.189-.126.033-.248.076-.377.1-.33.065-.666.106-1.01.112.005.321.054.635.129.943.01.007.017.015.028.023.23.177.617.475.66.997.011.136-.007.278-.045.425.164.236.351.457.561.658h5.937c.85-.813 1.334-1.938 1.334-3.111zm-.996 3.989h-6.611-25.753c-.029-.002-.058-.005-.085-.005-.04 0-.074.006-.092.028-.064.075-.12.375.07 1.029l.044.163c.883 3.355 4.3 11.159 16.935 11.159 12.776 0 16.251-8.631 17.012-11.276.254-.875.089-1.069.081-1.077-.026-.031-.095-.026-.093-.028l-.082.007zm-7.535-9.044.62-.621 1.602 1.603-.621.622zm0-1.583 1.601-1.603.621.622-1.602 1.602zm-2.563 2.565 1.601-1.603.621.621-1.601 1.604zm0-3.546.621-.622 1.601 1.603-.621.621zm-4.879 10.114v-.879c-.033 0-.051.007-.051.007.152-.053.617-.507.976-.953l.683.552c-.68.844-1.221 1.273-1.608 1.273zm-.538-3.377 1.321-1.551.668.571-1.321 1.55zm4.646 1.517-.622.621-1.153-1.158.621-.621z" fill="#e4002b" fill-rule="evenodd"/></svg>